<svg width="198" height="52" viewBox="0 0 198 52" fill="none" xmlns="http://www.w3.org/2000/svg">
<path fill-rule="evenodd" clip-rule="evenodd" d="M9 4C6.23858 4 4 6.23858 4 9V43C4 45.7614 6.23858 48 9 48H189C191.761 48 194 45.7614 194 43V9C194 6.23858 191.761 4 189 4H9Z" fill="black"/>
<path fill-rule="evenodd" clip-rule="evenodd" d="M105.524 27.2451V32H103.301V19.2031H108.196C109.626 19.2031 110.761 19.5752 111.602 20.3193C112.443 21.0635 112.863 22.0478 112.863 23.2725C112.863 24.5264 112.452 25.5019 111.628 26.1992C110.805 26.8965 109.652 27.2451 108.17 27.2451H105.524ZM105.524 25.4609H108.196C108.987 25.4609 109.591 25.2749 110.007 24.9028C110.423 24.5308 110.631 23.9932 110.631 23.29C110.631 22.5986 110.42 22.0464 109.998 21.6333C109.576 21.2202 108.996 21.0078 108.258 20.9961H105.524V25.4609ZM119.938 31.1123C120.009 31.5225 120.091 31.8184 120.185 32H122.364V31.8506C122.124 31.3408 122.004 30.6582 122.004 29.8027V25.5137C121.986 24.5 121.646 23.7134 120.984 23.1538C120.322 22.5942 119.435 22.3145 118.321 22.3145C117.589 22.3145 116.925 22.4434 116.331 22.7012C115.736 22.959 115.266 23.3149 114.92 23.769C114.574 24.2231 114.401 24.7109 114.401 25.2324H116.537C116.537 24.8574 116.692 24.5483 117.003 24.3052C117.313 24.062 117.712 23.9404 118.198 23.9404C118.761 23.9404 119.18 24.0884 119.455 24.3843C119.73 24.6802 119.868 25.0742 119.868 25.5664V26.1904H118.559C117.158 26.1904 116.082 26.4614 115.329 27.0034C114.576 27.5454 114.199 28.3232 114.199 29.3369C114.199 30.1397 114.501 30.8135 115.104 31.3584C115.708 31.9033 116.487 32.1758 117.442 32.1758C118.427 32.1758 119.259 31.8213 119.938 31.1123ZM117.838 30.4619C118.26 30.4619 118.657 30.3594 119.029 30.1543C119.401 29.9492 119.681 29.6738 119.868 29.3281V27.5352H118.717C117.926 27.5352 117.331 27.6729 116.933 27.9482C116.534 28.2236 116.335 28.6133 116.335 29.1172C116.335 29.5273 116.471 29.854 116.744 30.0972C117.016 30.3403 117.381 30.4619 117.838 30.4619ZM129.369 22.4902L127.436 28.9414L125.423 22.4902H123.12L126.46 31.9561L126.152 32.7734C125.994 33.2363 125.779 33.5659 125.506 33.7622C125.234 33.9585 124.828 34.0566 124.289 34.0566L123.885 34.0303V35.6826C124.26 35.7881 124.603 35.8408 124.913 35.8408C126.302 35.8408 127.286 35.041 127.866 33.4414L131.646 22.4902H129.369Z" fill="white"/>
<path fill-rule="evenodd" clip-rule="evenodd" d="M80.4222 29.1762V30.6158H74L74.0122 30.3957C74.119 28.4707 74.7815 27.6567 76.8456 26.3637C76.8433 26.3652 77.2065 26.1376 77.3106 26.0709C78.4497 25.3421 78.9405 24.7739 78.9405 23.906C78.9405 22.9964 78.3068 22.3765 77.3719 22.3765C76.2906 22.3765 75.7345 23.1986 75.7041 24.4822L75.6992 24.6859H74.2774L74.2677 24.4875L74.2555 24.2307C74.2555 22.3006 75.5293 21 77.423 21C79.2747 21 80.5004 22.1409 80.5004 23.8819C80.5004 25.4702 79.7494 26.2517 77.6476 27.5249L77.6058 27.55L77.4699 27.6307L77.4693 27.6311C77.3944 27.6755 77.312 27.7244 77.279 27.7442C76.4229 28.2563 75.9795 28.6396 75.7717 29.1762H80.4222ZM88 26.957V28.3906H86.743V30.6158H85.3004V28.3906H81.2649V27.0604L81.3021 26.9415L85.3586 21.0898L85.5301 21H86.743V26.957H88ZM85.3004 26.954H82.9603L85.3004 23.4821V26.954Z" fill="white"/>
<path fill-rule="evenodd" clip-rule="evenodd" d="M67 26C67 18.272 73.272 12 81 12C88.728 12 95 18.272 95 26C95 33.728 88.728 40 81 40C73.272 40 67 33.728 67 26ZM69 26C69 32.615 74.385 38 81 38C87.615 38 93 32.615 93 26C93 19.385 87.615 14 81 14C74.385 14 69 19.385 69 26Z" fill="#8DC641"/>
</svg>
