<svg width="198" height="52" viewBox="0 0 198 52" fill="none" xmlns="http://www.w3.org/2000/svg">
<path fill-rule="evenodd" clip-rule="evenodd" d="M9 4C6.23858 4 4 6.23858 4 9V43C4 45.7614 6.23858 48 9 48H189C191.761 48 194 45.7614 194 43V9C194 6.23858 191.761 4 189 4H9Z" fill="black"/>
<path fill-rule="evenodd" clip-rule="evenodd" d="M142.224 27.2451V32H140V19.2031H144.896C146.325 19.2031 147.46 19.5752 148.301 20.3193C149.142 21.0635 149.562 22.0478 149.562 23.2725C149.562 24.5264 149.151 25.5019 148.328 26.1992C147.504 26.8965 146.352 27.2451 144.869 27.2451H142.224ZM142.224 25.4609H144.896C145.687 25.4609 146.29 25.2749 146.706 24.9028C147.122 24.5308 147.33 23.9932 147.33 23.29C147.33 22.5986 147.119 22.0464 146.697 21.6333C146.275 21.2202 145.695 21.0078 144.957 20.9961H142.224V25.4609ZM156.638 31.1123C156.708 31.5225 156.79 31.8184 156.884 32H159.063V31.8506C158.823 31.3408 158.703 30.6582 158.703 29.8027V25.5137C158.686 24.5 158.346 23.7134 157.684 23.1538C157.021 22.5942 156.134 22.3145 155.021 22.3145C154.288 22.3145 153.625 22.4434 153.03 22.7012C152.435 22.959 151.965 23.3149 151.619 23.769C151.273 24.2231 151.101 24.7109 151.101 25.2324H153.236C153.236 24.8574 153.392 24.5483 153.702 24.3052C154.013 24.062 154.411 23.9404 154.897 23.9404C155.46 23.9404 155.879 24.0884 156.154 24.3843C156.43 24.6802 156.567 25.0742 156.567 25.5664V26.1904H155.258C153.857 26.1904 152.781 26.4614 152.028 27.0034C151.275 27.5454 150.898 28.3232 150.898 29.3369C150.898 30.1397 151.2 30.8135 151.804 31.3584C152.407 31.9033 153.187 32.1758 154.142 32.1758C155.126 32.1758 155.958 31.8213 156.638 31.1123ZM154.537 30.4619C154.959 30.4619 155.356 30.3594 155.728 30.1543C156.1 29.9492 156.38 29.6738 156.567 29.3281V27.5352H155.416C154.625 27.5352 154.03 27.6729 153.632 27.9482C153.233 28.2236 153.034 28.6133 153.034 29.1172C153.034 29.5273 153.17 29.854 153.443 30.0972C153.715 30.3403 154.08 30.4619 154.537 30.4619ZM166.068 22.4902L164.135 28.9414L162.122 22.4902H159.819L163.159 31.9561L162.852 32.7734C162.693 33.2363 162.478 33.5659 162.206 33.7622C161.933 33.9585 161.527 34.0566 160.988 34.0566L160.584 34.0303V35.6826C160.959 35.7881 161.302 35.8408 161.612 35.8408C163.001 35.8408 163.985 35.041 164.565 33.4414L168.345 22.4902H166.068Z" fill="white"/>
<path fill-rule="evenodd" clip-rule="evenodd" d="M117.121 29.1762V30.6158H110.699L110.711 30.3957C110.818 28.4707 111.481 27.6567 113.545 26.3637C113.542 26.3652 113.906 26.1376 114.01 26.0709C115.149 25.3421 115.64 24.7739 115.64 23.906C115.64 22.9964 115.006 22.3765 114.071 22.3765C112.99 22.3765 112.434 23.1986 112.403 24.4822L112.398 24.6859H110.977L110.967 24.4875L110.955 24.2307C110.955 22.3006 112.228 21 114.122 21C115.974 21 117.2 22.1409 117.2 23.8819C117.2 25.4702 116.449 26.2517 114.347 27.5249L114.305 27.55L114.169 27.6307L114.169 27.6311C114.094 27.6755 114.011 27.7244 113.978 27.7442C113.122 28.2563 112.679 28.6396 112.471 29.1762H117.121ZM124.699 26.957V28.3906H123.442V30.6158H122V28.3906H117.964V27.0604L118.001 26.9415L122.058 21.0898L122.229 21H123.442V26.957H124.699ZM122 26.954H119.66L122 23.4821V26.954Z" fill="white"/>
<path fill-rule="evenodd" clip-rule="evenodd" d="M103.699 26C103.699 18.272 109.971 12 117.699 12C125.427 12 131.699 18.272 131.699 26C131.699 33.728 125.427 40 117.699 40C109.971 40 103.699 33.728 103.699 26ZM105.699 26C105.699 32.615 111.084 38 117.699 38C124.314 38 129.699 32.615 129.699 26C129.699 19.385 124.314 14 117.699 14C111.084 14 105.699 19.385 105.699 26Z" fill="#8DC641"/>
<path fill-rule="evenodd" clip-rule="evenodd" d="M92.1055 22.3145C91.0391 22.3145 90.1572 22.7187 89.46 23.5273V18.5H87.3242V32H89.46V25.2061C89.8818 24.4443 90.5205 24.0635 91.376 24.0635C91.9268 24.0635 92.3442 24.1997 92.6284 24.4722C92.9126 24.7446 93.0547 25.209 93.0547 25.8652V32H95.1904V25.7861C95.1611 23.4717 94.1328 22.3145 92.1055 22.3145ZM77.0894 19.2031C76.8813 19.4199 76.7773 19.6924 76.7773 20.0205C76.7773 20.3428 76.8813 20.6108 77.0894 20.8247C77.2974 21.0386 77.5947 21.1455 77.9814 21.1455C78.3682 21.1455 78.667 21.0386 78.8779 20.8247C79.0889 20.6108 79.1943 20.3428 79.1943 20.0205C79.1943 19.6924 79.0889 19.4199 78.8779 19.2031C78.667 18.9863 78.3682 18.8779 77.9814 18.8779C77.5947 18.8779 77.2974 18.9863 77.0894 19.2031ZM29 19.2031V32H33.667C35.1025 32 36.2056 31.6777 36.9761 31.0332C37.7466 30.3887 38.1318 29.4658 38.1318 28.2646C38.1318 27.5381 37.9429 26.9155 37.5649 26.397C37.187 25.8784 36.6523 25.5254 35.9609 25.3379C36.5703 25.0801 37.0332 24.7168 37.3496 24.248C37.666 23.7793 37.8242 23.252 37.8242 22.666C37.8242 21.5176 37.4463 20.6533 36.6904 20.0732C35.9346 19.4932 34.833 19.2031 33.3857 19.2031H29ZM31.2236 30.2246V26.2256H33.8779C35.2373 26.2549 35.917 26.9346 35.917 28.2646C35.917 28.8799 35.7207 29.3603 35.3281 29.7061C34.9355 30.0518 34.3906 30.2246 33.6934 30.2246H31.2236ZM31.2236 24.5908H33.4033C34.0947 24.5908 34.6353 24.4341 35.0249 24.1206C35.4146 23.8071 35.6094 23.3633 35.6094 22.7891C35.6094 22.1562 35.4292 21.6992 35.0688 21.418C34.7085 21.1367 34.1475 20.9961 33.3857 20.9961H31.2236V24.5908ZM43.2383 32.1758C44.3926 32.1758 45.2832 31.8066 45.9102 31.0684L45.9629 32H47.9756V22.4902H45.8398V29.3193C45.4766 30.0635 44.7764 30.4355 43.7393 30.4355C42.7373 30.4355 42.2363 29.832 42.2363 28.625V22.4902H40.1006V28.6514C40.1006 29.794 40.3657 30.667 40.896 31.2705C41.4263 31.874 42.207 32.1758 43.2383 32.1758ZM53.4775 28.9414L55.4111 22.4902H57.6875L53.9082 33.4414C53.3281 35.041 52.3438 35.8408 50.9551 35.8408C50.6445 35.8408 50.3018 35.7881 49.9268 35.6826V34.0303L50.3311 34.0566C50.8701 34.0566 51.2759 33.9585 51.5483 33.7622C51.8208 33.5659 52.0361 33.2363 52.1943 32.7734L52.502 31.9561L49.1621 22.4902H51.4648L53.4775 28.9414ZM73.2617 22.4902L71.75 29.0557L69.7725 22.4902H68.1641L66.2129 28.9854L64.6748 22.4902H62.5918L65.1934 32H66.9512L68.9551 25.4697L70.9941 32H72.752L75.3447 22.4902H73.2617ZM79.0449 32H76.9092V22.4902H79.0449V32ZM84.0459 20.1787V22.4902H85.7246V24.0723H84.0459V29.3809C84.0459 29.7441 84.1177 30.0063 84.2612 30.1675C84.4048 30.3286 84.6611 30.4092 85.0303 30.4092C85.2764 30.4092 85.5254 30.3799 85.7773 30.3213V31.9736C85.291 32.1084 84.8223 32.1758 84.3711 32.1758C82.7305 32.1758 81.9102 31.2705 81.9102 29.46V24.0723H80.3457V22.4902H81.9102V20.1787H84.0459Z" fill="white"/>
</svg>
